<?xml version="1.0"?><svg width="640" height="480" xmlns="http://www.w3.org/2000/svg">
 <title>qawdwewq</title>
 <metadata id="metadata18081">image/svg+xmlPublic Domainclker.comMohamed Ibrahimmap symbolsmap symbolsimage/svg+xmlMap SymbolsMohamed IbrahimPublic Domain Licenseclker.commap symbols</metadata>
 <g>
  <title>Layer 1</title>
  <path fill="#ad0417" fill-rule="nonzero" id="path6764" d="m418.923096,137.483307c-3.729309,-18.550995 -15.586639,-25.961823 -33.420441,-33.37265c-17.833801,-7.458649 -59.573517,-16.303833 -90.699005,-16.303833c-31.173279,0 -72.912994,8.845184 -90.746796,16.303833c-17.833801,7.410828 -29.691132,14.821655 -33.420441,33.37262l-13.387299,102.890991l0,141.761963l23.093109,0l0,22.232483c0,27.061462 39.683807,27.061462 39.683807,0l0,-22.232483l149.603119,0l0,22.232483c0,27.061462 39.588196,27.061462 39.588196,0l0,-22.232483l23.045288,0l0,-141.761993l-13.339539,-102.89093zm-186.370422,-26.965851l124.406311,0c12.239807,0 12.239807,23.188721 0,23.188721l-124.406311,0c-12.192017,0 -12.192017,-23.188721 0,-23.188721m-32.416412,229.066345c-11.522644,0 -20.893768,-9.323303 -20.893768,-20.941559c0,-11.522644 9.371124,-20.893768 20.893768,-20.893768c11.570465,0 20.941559,9.371124 20.941559,20.893768c0,11.618256 -9.371124,20.941559 -20.941559,20.941559m189.286926,0c-11.570465,0 -20.98938,-9.323303 -20.98938,-20.941559c0,-11.522644 9.418915,-20.893768 20.98938,-20.893768c11.474823,0 20.845917,9.371124 20.845917,20.893768c0,11.618256 -9.371124,20.941559 -20.845947,20.941559m8.223633,-88.356201l-205.447327,0c-5.976471,0 -10.948914,-4.972412 -10.948914,-10.948914c0,-1.004059 0.191254,-1.960297 0.382507,-2.868713l10.948944,-81.136627c0.908417,-5.068054 5.40274,-8.988617 10.709839,-8.988617l183.214813,0c5.307098,0 9.801422,3.920563 10.75766,8.988617l10.901093,81.136627c0.191223,0.908417 0.382507,1.864655 0.382507,2.868713c0,5.976471 -4.924622,10.948914 -10.901093,10.948914"/>
 </g>
</svg>